<svg aria-hidden="true" style="position: absolute; width: 0; height: 0; overflow: hidden;" version="1.1" xmlns="http://www.w3.org/2000/svg" xmlns:xlink="http://www.w3.org/1999/xlink">
<defs>
<symbol id="icon-save" viewBox="0 0 24 28">
<path d="M6 24h12v-6h-12v6zM20 24h2v-14c0-0.297-0.266-0.938-0.469-1.141l-4.391-4.391c-0.219-0.219-0.828-0.469-1.141-0.469v6.5c0 0.828-0.672 1.5-1.5 1.5h-9c-0.828 0-1.5-0.672-1.5-1.5v-6.5h-2v20h2v-6.5c0-0.828 0.672-1.5 1.5-1.5h13c0.828 0 1.5 0.672 1.5 1.5v6.5zM14 9.5v-5c0-0.266-0.234-0.5-0.5-0.5h-3c-0.266 0-0.5 0.234-0.5 0.5v5c0 0.266 0.234 0.5 0.5 0.5h3c0.266 0 0.5-0.234 0.5-0.5zM24 10v14.5c0 0.828-0.672 1.5-1.5 1.5h-21c-0.828 0-1.5-0.672-1.5-1.5v-21c0-0.828 0.672-1.5 1.5-1.5h14.5c0.828 0 1.969 0.469 2.562 1.062l4.375 4.375c0.594 0.594 1.062 1.734 1.062 2.562z"></path>
</symbol>
<symbol id="icon-arrow-left" viewBox="0 0 20 20">
<path d="M3.828 9l6.071-6.071-1.414-1.414-8.485 8.485 8.485 8.485 1.414-1.414-6.071-6.071h16.172v-2h-16.172z"></path>
</symbol>
<symbol id="icon-delete-bin" viewBox="0 0 32 32">
<path d="M4 10v20c0 1.1 0.9 2 2 2h18c1.1 0 2-0.9 2-2v-20h-22zM10 28h-2v-14h2v14zM14 28h-2v-14h2v14zM18 28h-2v-14h2v14zM22 28h-2v-14h2v14z"></path>
<path d="M26.5 4h-6.5v-2.5c0-0.825-0.675-1.5-1.5-1.5h-7c-0.825 0-1.5 0.675-1.5 1.5v2.5h-6.5c-0.825 0-1.5 0.675-1.5 1.5v2.5h26v-2.5c0-0.825-0.675-1.5-1.5-1.5zM18 4h-6v-1.975h6v1.975z"></path>
</symbol>
<symbol id="icon-next" viewBox="0 0 23 32">
<path stroke-linejoin="miter" stroke-linecap="butt" stroke-miterlimit="4" stroke-width="2.2857" d="M2.286 29.714l18.286-13.714-18.286-13.714"></path>
</symbol>
<symbol id="icon-before" viewBox="0 0 23 32">
<path stroke-linejoin="miter" stroke-linecap="butt" stroke-miterlimit="4" stroke-width="2.2857" d="M20.571 29.714l-18.286-13.714 18.286-13.714"></path>
</symbol>
<symbol id="icon-analytics" viewBox="0 0 32 32">
<path fill="#fff" style="fill: var(--color1, #fff)" d="M31.333 30.667h-30.667c-0.368 0-0.667 0.299-0.667 0.667s0.299 0.667 0.667 0.667h30.667c0.368 0 0.667-0.299 0.667-0.667s-0.299-0.667-0.667-0.667z"></path>
<path fill="#fff" style="fill: var(--color1, #fff)" d="M6 22.667h-4c-0.368 0-0.667 0.299-0.667 0.667v8c0 0.368 0.299 0.667 0.667 0.667h4c0.368 0 0.667-0.299 0.667-0.667v-8c0-0.368-0.299-0.667-0.667-0.667zM5.333 30.667h-2.667v-6.667h2.667v6.667h-0z"></path>
<path fill="#fff" style="fill: var(--color1, #fff)" d="M14 16h-4c-0.368 0-0.667 0.299-0.667 0.667v14.667c0 0.368 0.299 0.667 0.667 0.667h4c0.368 0 0.667-0.299 0.667-0.667v-14.667c0-0.368-0.299-0.667-0.667-0.667zM13.333 30.667h-2.667v-13.333h2.667v13.333z"></path>
<path fill="#fff" style="fill: var(--color1, #fff)" d="M22 18.667h-4c-0.368 0-0.667 0.299-0.667 0.667v12c0 0.368 0.299 0.667 0.667 0.667h4c0.368 0 0.667-0.299 0.667-0.667v-12c0-0.368-0.299-0.667-0.667-0.667zM21.333 30.667h-2.667v-10.667h2.667v10.667z"></path>
<path fill="#fff" style="fill: var(--color1, #fff)" d="M30 10.667h-4c-0.368 0-0.667 0.299-0.667 0.667v20c0 0.368 0.299 0.667 0.667 0.667h4c0.368 0 0.667-0.299 0.667-0.667v-20c0-0.368-0.299-0.667-0.667-0.667zM29.333 30.667h-2.667v-18.667h2.667v18.667z"></path>
<path fill="#fff" style="fill: var(--color1, #fff)" d="M4 12c-1.471 0-2.667 1.196-2.667 2.667s1.196 2.667 2.667 2.667 2.667-1.196 2.667-2.667c0-1.471-1.196-2.667-2.667-2.667zM4 16c-0.736 0-1.333-0.599-1.333-1.333s0.597-1.333 1.333-1.333 1.333 0.599 1.333 1.333c0 0.735-0.597 1.333-1.333 1.333z"></path>
<path fill="#fff" style="fill: var(--color1, #fff)" d="M12 5.333c-1.471 0-2.667 1.196-2.667 2.667s1.196 2.667 2.667 2.667c1.471 0 2.667-1.196 2.667-2.667s-1.196-2.667-2.667-2.667zM12 9.333c-0.736 0-1.333-0.599-1.333-1.333s0.597-1.333 1.333-1.333 1.333 0.599 1.333 1.333c0 0.735-0.597 1.333-1.333 1.333z"></path>
<path fill="#fff" style="fill: var(--color1, #fff)" d="M20 8c-1.471 0-2.667 1.196-2.667 2.667s1.196 2.667 2.667 2.667c1.471 0 2.667-1.196 2.667-2.667s-1.196-2.667-2.667-2.667zM20 12c-0.736 0-1.333-0.599-1.333-1.333s0.597-1.333 1.333-1.333 1.333 0.599 1.333 1.333c0 0.735-0.597 1.333-1.333 1.333z"></path>
<path fill="#fff" style="fill: var(--color1, #fff)" d="M28 0c-1.471 0-2.667 1.196-2.667 2.667s1.196 2.667 2.667 2.667c1.471 0 2.667-1.196 2.667-2.667s-1.196-2.667-2.667-2.667zM28 4c-0.736 0-1.333-0.599-1.333-1.333s0.597-1.333 1.333-1.333 1.333 0.599 1.333 1.333c0 0.735-0.597 1.333-1.333 1.333z"></path>
<path fill="#fff" style="fill: var(--color1, #fff)" d="M27.059 3.608c-0.26-0.26-0.683-0.26-0.943 0l-5.173 5.173c-0.26 0.26-0.26 0.683 0 0.943 0.131 0.129 0.301 0.195 0.472 0.195 0.169 0 0.34-0.064 0.471-0.195l5.173-5.173c0.26-0.26 0.26-0.683 0-0.943z"></path>
<path fill="#fff" style="fill: var(--color1, #fff)" d="M18.388 9.128l-4.283-1.221c-0.359-0.104-0.723 0.104-0.823 0.459-0.101 0.355 0.104 0.723 0.457 0.824l4.283 1.221c0.061 0.017 0.123 0.025 0.183 0.025 0.291 0 0.557-0.191 0.641-0.484 0.101-0.353-0.104-0.723-0.459-0.824z"></path>
<path fill="#fff" style="fill: var(--color1, #fff)" d="M10.96 8.831c-0.229-0.288-0.648-0.335-0.936-0.107l-5.027 4.008c-0.288 0.231-0.336 0.649-0.105 0.937 0.132 0.165 0.327 0.251 0.521 0.251 0.145 0 0.292-0.048 0.415-0.144l5.027-4.008c0.288-0.231 0.336-0.649 0.105-0.937z"></path>
</symbol>
<symbol id="icon-cross" viewBox="0 0 32 32">
<path d="M28.512 30.458l-12.519-12.519-12.195 12.195-2.011-2.011 12.195-12.195-12.454-12.454 1.881-1.881 12.454 12.454 12.26-12.26 2.011 2.011-12.26 12.26 12.519 12.519-1.881 1.881z"></path>
</symbol>
<symbol id="icon-arrow-down" viewBox="0 0 32 32">
<path d="M16 5.333l13.857 20h-27.713l13.856-20z"></path>
</symbol>
<symbol id="icon-arrow-up" viewBox="0 0 32 32">
<path d="M16 26.667l-13.856-20h27.713l-13.857 20z"></path>
</symbol>
<symbol id="icon-logout" viewBox="0 0 32 32">
<path stroke-linejoin="miter" stroke-linecap="butt" stroke-miterlimit="4" stroke-width="0.5333" d="M26.769 11.242v-0c0.384-0.384 1.007-0.384 1.391 0l2.799 2.799c1.115 1.114 1.115 2.928 0 4.042l-2.799 2.799c-0.192 0.192-0.443 0.288-0.695 0.288s-0.503-0.096-0.695-0.288v0c-0.384-0.384-0.384-1.006 0-1.39v0l2.446-2.446h-15.653c-0.543 0-0.983-0.44-0.983-0.983s0.44-0.983 0.983-0.983h15.653l-2.446-2.447c-0.384-0.384-0.384-1.006 0-1.39zM22.358 24.5v2.5c0 2.61-2.124 4.733-4.733 4.733h-12.563c-2.61 0-4.733-2.124-4.733-4.733v-22c0-2.61 2.124-4.733 4.733-4.733h12.563c2.61 0 4.733 2.124 4.733 4.733v2.5c0 0.543-0.44 0.983-0.983 0.983s-0.983-0.44-0.983-0.983v-2.5c0-1.526-1.241-2.767-2.767-2.767h-12.563c-1.526 0-2.767 1.241-2.767 2.767v22c0 1.526 1.241 2.767 2.767 2.767h12.563c1.526 0 2.767-1.241 2.767-2.767v-2.5c0-0.543 0.44-0.983 0.983-0.983s0.983 0.44 0.983 0.983z"></path>
</symbol>
<symbol id="icon-pencil" viewBox="0 0 32 32">
<path  d="M15.999 0c-8.836 0-15.999 7.164-15.999 16s7.163 16 15.999 16c8.836 0 16-7.164 16-16s-7.164-16-16-16zM23.605 11.514l-1.52 1.52-3.093-3.093-1.174 1.174 3.093 3.093-7.587 7.587-3.093-3.093-1.174 1.174 3.093 3.093-0.756 0.756-0.014-0.014c-0.084 0.138-0.22 0.239-0.382 0.275l-2.885 0.643c-0.043 0.010-0.087 0.014-0.131 0.014-0.157 0-0.31-0.062-0.424-0.176-0.146-0.145-0.206-0.354-0.161-0.555l0.643-2.884c0.036-0.162 0.137-0.298 0.275-0.382l-0.015-0.015 12.21-12.211c0.179-0.179 0.47-0.179 0.649 0.001l2.445 2.444c0.179 0.179 0.179 0.47-0 0.649z"></path>
</symbol>
<symbol id="icon-orange-pencil" viewBox="0 0 32 32">
<path fill="#ff6b08" style="fill: var(--color1, #ff6b08)" d="M16 0c-8.837 0-16 7.163-16 16 0 8.835 7.163 16 16 16 8.835 0 16-7.163 16-16s-7.165-16-16-16zM23.605 11.514l-1.52 1.52-3.093-3.093-1.173 1.173 3.093 3.094-7.587 7.584-3.093-3.093-1.174 1.174 3.094 3.093-0.757 0.757-0.014-0.016c-0.084 0.138-0.219 0.238-0.378 0.274l-0.004 0.001-2.885 0.643c-0.040 0.010-0.086 0.015-0.133 0.015-0.164 0-0.313-0.067-0.42-0.175l-0-0c-0.108-0.108-0.175-0.258-0.175-0.423 0-0.047 0.005-0.093 0.016-0.137l-0.001 0.004 0.64-2.885c0.038-0.163 0.138-0.298 0.274-0.381l0.003-0.002-0.016-0.014 12.211-12.21c0.083-0.083 0.198-0.134 0.324-0.134s0.241 0.051 0.324 0.134l2.446 2.445c0.083 0.083 0.134 0.198 0.134 0.324s-0.051 0.241-0.134 0.324l0-0z"></path>
</symbol>
<symbol id="icon-add-group" viewBox="0 0 32 32">
<path d="M18.529 21.037c-0.782-0.546-1.619-0.991-2.493-1.331 1.163-1.057 1.935-2.539 2.069-4.197 1.764-1.719 4.077-2.661 6.556-2.661 1.935 0 3.794 0.583 5.374 1.685 0.566 0.395 1.345 0.256 1.74-0.31s0.256-1.345-0.31-1.74c-0.783-0.546-1.619-0.99-2.493-1.331 1.284-1.167 2.091-2.849 2.091-4.716 0-3.515-2.86-6.374-6.374-6.374s-6.374 2.859-6.374 6.374c0 1.86 0.8 3.536 2.075 4.702-0.175 0.067-0.348 0.138-0.52 0.214-0.782 0.344-1.518 0.768-2.201 1.265-0.943-2.343-3.239-4.001-5.916-4.001-3.515 0-6.374 2.859-6.374 6.374 0 1.855 0.796 3.526 2.064 4.692-3.39 1.27-6.139 3.999-7.259 7.478-0.371 1.154-0.175 2.377 0.539 3.357s1.818 1.541 3.030 1.541h10.874c0.69 0 1.25-0.56 1.25-1.25s-0.56-1.25-1.25-1.25h-10.874c-0.404 0-0.772-0.187-1.010-0.514s-0.303-0.735-0.18-1.119c1.235-3.841 5.003-6.523 9.162-6.523 1.935 0 3.793 0.583 5.374 1.685 0.566 0.395 1.345 0.256 1.74-0.31s0.256-1.345-0.31-1.74zM24.688 2.562c2.136 0 3.875 1.738 3.875 3.874s-1.738 3.874-3.875 3.874c-2.136 0-3.874-1.738-3.874-3.874s1.738-3.874 3.874-3.874zM11.752 11.116c2.136 0 3.874 1.738 3.874 3.874s-1.738 3.875-3.874 3.875-3.874-1.738-3.874-3.875c0-2.136 1.738-3.874 3.874-3.874zM32 26.122c0 0.69-0.56 1.25-1.25 1.25h-3.437v3.437c0 0.69-0.56 1.25-1.25 1.25s-1.25-0.56-1.25-1.25v-3.437h-3.437c-0.69 0-1.25-0.56-1.25-1.25s0.56-1.25 1.25-1.25h3.437v-3.437c0-0.69 0.56-1.25 1.25-1.25s1.25 0.56 1.25 1.25v3.437h3.437c0.691 0 1.25 0.56 1.25 1.25z"></path>
</symbol>
<symbol id="icon-search" viewBox="0 0 32 32">
<path fill="#a6a6a6" style="fill: var(--color2, #a6a6a6)" d="M31.609 29.724l-9.1-9.1c1.763-2.177 2.824-4.944 2.824-7.957 0-6.984-5.683-12.667-12.667-12.667s-12.666 5.683-12.666 12.666c0 6.984 5.683 12.667 12.667 12.667 3.013 0 5.78-1.061 7.957-2.824l9.1 9.1c0.26 0.26 0.601 0.391 0.943 0.391s0.683-0.131 0.943-0.391c0.521-0.521 0.521-1.364-0-1.885zM12.667 22.667c-5.515 0-10-4.485-10-10s4.485-10 10-10c5.515 0 10 4.485 10 10s-4.485 10-10 10z"></path>
</symbol>
<symbol id="icon-delete-circle" viewBox="0 0 32 32">
<path fill="#fff" style="fill: var(--color1, #fff)" d="M16 7.442c-3.494 0-6.326 2.832-6.326 6.326s2.832 6.326 6.326 6.326c3.494 0 6.326-2.832 6.326-6.326s-2.832-6.326-6.326-6.326zM16.579 10.734h-1.153v0.194h-0.417v-0.221c0-0.215 0.175-0.389 0.389-0.389h1.208c0.215 0 0.389 0.175 0.389 0.389v0.221h-0.416v-0.194zM17.957 12.578h-3.91c-0.107 0-0.191 0.091-0.183 0.198l0.327 4.042c0.018 0.226 0.206 0.399 0.433 0.399h2.757c0.226 0 0.414-0.174 0.433-0.399l0.327-4.042c0.009-0.107-0.076-0.198-0.183-0.198zM14.994 16.787l-0.005 0c-0.003 0-0.005 0-0.008 0-0.109 0-0.201-0.085-0.208-0.195l-0.205-3.318c-0.007-0.115 0.080-0.214 0.195-0.221s0.214 0.080 0.221 0.195l0.205 3.318c0.007 0.115-0.080 0.214-0.195 0.221zM16.213 16.579c0 0.115-0.093 0.208-0.208 0.208s-0.208-0.093-0.208-0.208v-3.318c0-0.115 0.093-0.208 0.208-0.208s0.208 0.093 0.208 0.208v3.318zM17.436 13.273l-0.196 3.318c-0.006 0.111-0.098 0.196-0.208 0.196-0.004 0-0.008-0-0.012-0-0.115-0.007-0.202-0.105-0.196-0.22l0.196-3.318c0.007-0.115 0.105-0.202 0.22-0.196s0.202 0.105 0.196 0.22zM18.541 11.525l0.137 0.41c0.026 0.079-0.008 0.16-0.072 0.2-0.026 0.016-0.057 0.026-0.091 0.026h-5.024c-0.034 0-0.065-0.010-0.091-0.026-0.064-0.040-0.098-0.121-0.072-0.2l0.137-0.41c0.036-0.108 0.137-0.181 0.251-0.181h4.574c0.114 0 0.215 0.073 0.251 0.181z"></path>
</symbol>
    <symbol id="icon-add-plus" viewBox="0 0 32 32">
        <path d="M31.883 17.058h-14.754v14.372h-2.37v-14.372h-14.677v-2.217h14.677v-14.448h2.37v14.448h14.754v2.217z"></path>
    </symbol>
    <symbol id="icon-bin2" viewBox="0 0 32 32">
        <path d="M6 32h20l2-22h-24zM20 4v-4h-8v4h-10v6l2-2h24l2 2v-6h-10zM18 4h-4v-2h4v2z"></path>
    </symbol>
    <symbol id="icon-Arrow-1" viewBox="0 0 124 32">
        <path d="M2.586 14.586c-0.781 0.781-0.781 2.047 0 2.828l12.728 12.728c0.781 0.781 2.047 0.781 2.828 0s0.781-2.047 0-2.828l-11.314-11.314 11.314-11.314c0.781-0.781 0.781-2.047 0-2.828s-2.047-0.781-2.828 0l-12.728 12.728zM124 14h-120v4h120v-4z"></path>
    </symbol>
    <symbol id="icon-bin2" viewBox="0 0 32 32">
        <path d="M6 32h20l2-22h-24zM20 4v-4h-8v4h-10v6l2-2h24l2 2v-6h-10zM18 4h-4v-2h4v2z"></path>
    </symbol>
    <symbol id="icon-checkmark" viewBox="0 0 32 32">
        <path d="M27 4l-15 15-7-7-5 5 12 12 20-20z"></path>
    </symbol>
    <symbol id="icon-checkmark2" viewBox="0 0 32 32">
        <path d="M12.42 28.678l-12.433-12.238 6.168-6.071 6.265 6.167 13.426-13.214 6.168 6.071-19.594 19.285zM3.372 16.441l9.048 8.905 16.208-15.953-2.782-2.739-13.426 13.214-6.265-6.167-2.782 2.739z"></path>
    </symbol>
</defs>
</svg>
